<svg height="4958" width="720" xmlns="http://www.w3.org/2000/svg">
<rect height="4958" fill="#555" width="720"></rect>
<text fill="#7f7" font-family="Courier New" font-size="12" xml:space="preserve">
<tspan x="10" y="26">79 megabytes installed</tspan>
<tspan x="10" y="42"></tspan>
<tspan x="10" y="58">node_modules</tspan>
<tspan x="10" y="74">└─┬ aglio@2.3.0 </tspan>
<tspan x="10" y="90">  ├─┬ aglio-theme-olio@1.6.3 </tspan>
<tspan x="10" y="106">  │ ├── coffee-script@1.12.5 </tspan>
<tspan x="10" y="122">  │ ├── highlight.js@8.9.1 </tspan>
<tspan x="10" y="138">  │ ├─┬ jade@1.11.0 </tspan>
<tspan x="10" y="154">  │ │ ├── character-parser@1.2.1 </tspan>
<tspan x="10" y="170">  │ │ ├─┬ clean-css@3.4.25 </tspan>
<tspan x="10" y="186">  │ │ │ ├─┬ commander@2.8.1 </tspan>
<tspan x="10" y="202">  │ │ │ │ └── graceful-readlink@1.0.1 </tspan>
<tspan x="10" y="218">  │ │ │ └── source-map@0.4.4 </tspan>
<tspan x="10" y="234">  │ │ ├── commander@2.6.0 </tspan>
<tspan x="10" y="250">  │ │ ├─┬ constantinople@3.0.2 </tspan>
<tspan x="10" y="266">  │ │ │ └── acorn@2.7.0 </tspan>
<tspan x="10" y="282">  │ │ ├─┬ jstransformer@0.0.2 </tspan>
<tspan x="10" y="298">  │ │ │ └─┬ promise@6.1.0 </tspan>
<tspan x="10" y="314">  │ │ │   └── asap@1.0.0 </tspan>
<tspan x="10" y="330">  │ │ ├─┬ mkdirp@0.5.1 </tspan>
<tspan x="10" y="346">  │ │ │ └── minimist@0.0.8 </tspan>
<tspan x="10" y="362">  │ │ ├─┬ transformers@2.1.0 </tspan>
<tspan x="10" y="378">  │ │ │ ├─┬ css@1.0.8 </tspan>
<tspan x="10" y="394">  │ │ │ │ ├── css-parse@1.0.4 </tspan>
<tspan x="10" y="410">  │ │ │ │ └── css-stringify@1.0.5 </tspan>
<tspan x="10" y="426">  │ │ │ ├─┬ promise@2.0.0 </tspan>
<tspan x="10" y="442">  │ │ │ │ └── is-promise@1.0.1 </tspan>
<tspan x="10" y="458">  │ │ │ └─┬ uglify-js@2.2.5 </tspan>
<tspan x="10" y="474">  │ │ │   ├─┬ optimist@0.3.7 </tspan>
<tspan x="10" y="490">  │ │ │   │ └── wordwrap@0.0.3 </tspan>
<tspan x="10" y="506">  │ │ │   └── source-map@0.1.43 </tspan>
<tspan x="10" y="522">  │ │ ├─┬ uglify-js@2.8.22 </tspan>
<tspan x="10" y="538">  │ │ │ ├── source-map@0.5.6 </tspan>
<tspan x="10" y="554">  │ │ │ ├── uglify-to-browserify@1.0.2 </tspan>
<tspan x="10" y="570">  │ │ │ └─┬ yargs@3.10.0 </tspan>
<tspan x="10" y="586">  │ │ │   ├── camelcase@1.2.1 </tspan>
<tspan x="10" y="602">  │ │ │   ├─┬ cliui@2.1.0 </tspan>
<tspan x="10" y="618">  │ │ │   │ ├─┬ center-align@0.1.3 </tspan>
<tspan x="10" y="634">  │ │ │   │ │ ├─┬ align-text@0.1.4 </tspan>
<tspan x="10" y="650">  │ │ │   │ │ │ └── longest@1.0.1 </tspan>
<tspan x="10" y="666">  │ │ │   │ │ └── lazy-cache@1.0.4 </tspan>
<tspan x="10" y="682">  │ │ │   │ ├── right-align@0.1.3 </tspan>
<tspan x="10" y="698">  │ │ │   │ └── wordwrap@0.0.2 </tspan>
<tspan x="10" y="714">  │ │ │   └── window-size@0.1.0 </tspan>
<tspan x="10" y="730">  │ │ ├── void-elements@2.0.1 </tspan>
<tspan x="10" y="746">  │ │ └─┬ with@4.0.3 </tspan>
<tspan x="10" y="762">  │ │   ├── acorn@1.2.2 </tspan>
<tspan x="10" y="778">  │ │   └── acorn-globals@1.0.9 </tspan>
<tspan x="10" y="794">  │ ├─┬ less@2.7.2 </tspan>
<tspan x="10" y="810">  │ │ ├─┬ errno@0.1.4 </tspan>
<tspan x="10" y="826">  │ │ │ └── prr@0.0.0 </tspan>
<tspan x="10" y="842">  │ │ ├── graceful-fs@4.1.11 </tspan>
<tspan x="10" y="858">  │ │ ├── image-size@0.5.1 </tspan>
<tspan x="10" y="874">  │ │ ├── mime@1.3.4 </tspan>
<tspan x="10" y="890">  │ │ ├─┬ promise@7.1.1 </tspan>
<tspan x="10" y="906">  │ │ │ └── asap@2.0.5 </tspan>
<tspan x="10" y="922">  │ │ ├─┬ request@2.81.0 </tspan>
<tspan x="10" y="938">  │ │ │ ├── aws-sign2@0.6.0 </tspan>
<tspan x="10" y="954">  │ │ │ ├── aws4@1.6.0 </tspan>
<tspan x="10" y="970">  │ │ │ ├── caseless@0.12.0 </tspan>
<tspan x="10" y="986">  │ │ │ ├─┬ combined-stream@1.0.5 </tspan>
<tspan x="10" y="1002">  │ │ │ │ └── delayed-stream@1.0.0 </tspan>
<tspan x="10" y="1018">  │ │ │ ├── extend@3.0.0 </tspan>
<tspan x="10" y="1034">  │ │ │ ├── forever-agent@0.6.1 </tspan>
<tspan x="10" y="1050">  │ │ │ ├─┬ form-data@2.1.4 </tspan>
<tspan x="10" y="1066">  │ │ │ │ └── asynckit@0.4.0 </tspan>
<tspan x="10" y="1082">  │ │ │ ├─┬ har-validator@4.2.1 </tspan>
<tspan x="10" y="1098">  │ │ │ │ ├─┬ ajv@4.11.7 </tspan>
<tspan x="10" y="1114">  │ │ │ │ │ ├── co@4.6.0 </tspan>
<tspan x="10" y="1130">  │ │ │ │ │ └─┬ json-stable-stringify@1.0.1 </tspan>
<tspan x="10" y="1146">  │ │ │ │ │   └── jsonify@0.0.0 </tspan>
<tspan x="10" y="1162">  │ │ │ │ └── har-schema@1.0.5 </tspan>
<tspan x="10" y="1178">  │ │ │ ├─┬ hawk@3.1.3 </tspan>
<tspan x="10" y="1194">  │ │ │ │ ├── boom@2.10.1 </tspan>
<tspan x="10" y="1210">  │ │ │ │ ├── cryptiles@2.0.5 </tspan>
<tspan x="10" y="1226">  │ │ │ │ ├── hoek@2.16.3 </tspan>
<tspan x="10" y="1242">  │ │ │ │ └── sntp@1.0.9 </tspan>
<tspan x="10" y="1258">  │ │ │ ├─┬ http-signature@1.1.1 </tspan>
<tspan x="10" y="1274">  │ │ │ │ ├── assert-plus@0.2.0 </tspan>
<tspan x="10" y="1290">  │ │ │ │ ├─┬ jsprim@1.4.0 </tspan>
<tspan x="10" y="1306">  │ │ │ │ │ ├── assert-plus@1.0.0 </tspan>
<tspan x="10" y="1322">  │ │ │ │ │ ├── extsprintf@1.0.2 </tspan>
<tspan x="10" y="1338">  │ │ │ │ │ ├── json-schema@0.2.3 </tspan>
<tspan x="10" y="1354">  │ │ │ │ │ └── verror@1.3.6 </tspan>
<tspan x="10" y="1370">  │ │ │ │ └─┬ sshpk@1.13.0 </tspan>
<tspan x="10" y="1386">  │ │ │ │   ├── asn1@0.2.3 </tspan>
<tspan x="10" y="1402">  │ │ │ │   ├── assert-plus@1.0.0 </tspan>
<tspan x="10" y="1418">  │ │ │ │   ├── bcrypt-pbkdf@1.0.1 </tspan>
<tspan x="10" y="1434">  │ │ │ │   ├─┬ dashdash@1.14.1 </tspan>
<tspan x="10" y="1450">  │ │ │ │   │ └── assert-plus@1.0.0 </tspan>
<tspan x="10" y="1466">  │ │ │ │   ├── ecc-jsbn@0.1.1 </tspan>
<tspan x="10" y="1482">  │ │ │ │   ├─┬ getpass@0.1.6 </tspan>
<tspan x="10" y="1498">  │ │ │ │   │ └── assert-plus@1.0.0 </tspan>
<tspan x="10" y="1514">  │ │ │ │   ├── jodid25519@1.0.2 </tspan>
<tspan x="10" y="1530">  │ │ │ │   ├── jsbn@0.1.1 </tspan>
<tspan x="10" y="1546">  │ │ │ │   └── tweetnacl@0.14.5 </tspan>
<tspan x="10" y="1562">  │ │ │ ├── is-typedarray@1.0.0 </tspan>
<tspan x="10" y="1578">  │ │ │ ├── isstream@0.1.2 </tspan>
<tspan x="10" y="1594">  │ │ │ ├── json-stringify-safe@5.0.1 </tspan>
<tspan x="10" y="1610">  │ │ │ ├─┬ mime-types@2.1.15 </tspan>
<tspan x="10" y="1626">  │ │ │ │ └── mime-db@1.27.0 </tspan>
<tspan x="10" y="1642">  │ │ │ ├── oauth-sign@0.8.2 </tspan>
<tspan x="10" y="1658">  │ │ │ ├── performance-now@0.2.0 </tspan>
<tspan x="10" y="1674">  │ │ │ ├── qs@6.4.0 </tspan>
<tspan x="10" y="1690">  │ │ │ ├── safe-buffer@5.0.1 </tspan>
<tspan x="10" y="1706">  │ │ │ ├── stringstream@0.0.5 </tspan>
<tspan x="10" y="1722">  │ │ │ ├─┬ tough-cookie@2.3.2 </tspan>
<tspan x="10" y="1738">  │ │ │ │ └── punycode@1.4.1 </tspan>
<tspan x="10" y="1754">  │ │ │ ├── tunnel-agent@0.6.0 </tspan>
<tspan x="10" y="1770">  │ │ │ └── uuid@3.0.1 </tspan>
<tspan x="10" y="1786">  │ │ └── source-map@0.5.6 </tspan>
<tspan x="10" y="1802">  │ ├─┬ markdown-it@4.4.0 </tspan>
<tspan x="10" y="1818">  │ │ ├─┬ argparse@1.0.9 </tspan>
<tspan x="10" y="1834">  │ │ │ └── sprintf-js@1.0.3 </tspan>
<tspan x="10" y="1850">  │ │ ├── entities@1.1.1 </tspan>
<tspan x="10" y="1866">  │ │ ├── linkify-it@1.2.4 </tspan>
<tspan x="10" y="1882">  │ │ ├── mdurl@1.0.1 </tspan>
<tspan x="10" y="1898">  │ │ └── uc.micro@1.0.3 </tspan>
<tspan x="10" y="1914">  │ ├─┬ markdown-it-anchor@2.7.1 </tspan>
<tspan x="10" y="1930">  │ │ └── string@3.3.3 </tspan>
<tspan x="10" y="1946">  │ ├─┬ markdown-it-checkbox@1.1.0 </tspan>
<tspan x="10" y="1962">  │ │ └── underscore@1.8.3 </tspan>
<tspan x="10" y="1978">  │ ├── markdown-it-container@1.0.0 </tspan>
<tspan x="10" y="1994">  │ ├── markdown-it-emoji@1.3.0 </tspan>
<tspan x="10" y="2010">  │ ├── moment@2.18.1 </tspan>
<tspan x="10" y="2026">  │ └─┬ stylus@0.51.1 </tspan>
<tspan x="10" y="2042">  │   ├── css-parse@1.7.0 </tspan>
<tspan x="10" y="2058">  │   ├── debug@2.6.3 </tspan>
<tspan x="10" y="2074">  │   ├─┬ glob@3.2.11 </tspan>
<tspan x="10" y="2090">  │   │ └─┬ minimatch@0.3.0 </tspan>
<tspan x="10" y="2106">  │   │   ├── lru-cache@2.7.3 </tspan>
<tspan x="10" y="2122">  │   │   └── sigmund@1.0.1 </tspan>
<tspan x="10" y="2138">  │   ├── mkdirp@0.3.5 </tspan>
<tspan x="10" y="2154">  │   ├── sax@0.5.8 </tspan>
<tspan x="10" y="2170">  │   └─┬ source-map@0.1.43 </tspan>
<tspan x="10" y="2186">  │     └── amdefine@1.0.1 </tspan>
<tspan x="10" y="2202">  ├─┬ chokidar@1.6.1 </tspan>
<tspan x="10" y="2218">  │ ├─┬ anymatch@1.3.0 </tspan>
<tspan x="10" y="2234">  │ │ ├── arrify@1.0.1 </tspan>
<tspan x="10" y="2250">  │ │ └─┬ micromatch@2.3.11 </tspan>
<tspan x="10" y="2266">  │ │   ├─┬ arr-diff@2.0.0 </tspan>
<tspan x="10" y="2282">  │ │   │ └── arr-flatten@1.0.3 </tspan>
<tspan x="10" y="2298">  │ │   ├── array-unique@0.2.1 </tspan>
<tspan x="10" y="2314">  │ │   ├─┬ braces@1.8.5 </tspan>
<tspan x="10" y="2330">  │ │   │ ├─┬ expand-range@1.8.2 </tspan>
<tspan x="10" y="2346">  │ │   │ │ └─┬ fill-range@2.2.3 </tspan>
<tspan x="10" y="2362">  │ │   │ │   ├── is-number@2.1.0 </tspan>
<tspan x="10" y="2378">  │ │   │ │   ├── isobject@2.1.0 </tspan>
<tspan x="10" y="2394">  │ │   │ │   ├── randomatic@1.1.6 </tspan>
<tspan x="10" y="2410">  │ │   │ │   └── repeat-string@1.6.1 </tspan>
<tspan x="10" y="2426">  │ │   │ ├── preserve@0.2.0 </tspan>
<tspan x="10" y="2442">  │ │   │ └── repeat-element@1.1.2 </tspan>
<tspan x="10" y="2458">  │ │   ├─┬ expand-brackets@0.1.5 </tspan>
<tspan x="10" y="2474">  │ │   │ └── is-posix-bracket@0.1.1 </tspan>
<tspan x="10" y="2490">  │ │   ├── extglob@0.3.2 </tspan>
<tspan x="10" y="2506">  │ │   ├── filename-regex@2.0.0 </tspan>
<tspan x="10" y="2522">  │ │   ├─┬ kind-of@3.1.0 </tspan>
<tspan x="10" y="2538">  │ │   │ └── is-buffer@1.1.5 </tspan>
<tspan x="10" y="2554">  │ │   ├─┬ normalize-path@2.1.1 </tspan>
<tspan x="10" y="2570">  │ │   │ └── remove-trailing-separator@1.0.1 </tspan>
<tspan x="10" y="2586">  │ │   ├─┬ object.omit@2.0.1 </tspan>
<tspan x="10" y="2602">  │ │   │ ├─┬ for-own@0.1.5 </tspan>
<tspan x="10" y="2618">  │ │   │ │ └── for-in@1.0.2 </tspan>
<tspan x="10" y="2634">  │ │   │ └── is-extendable@0.1.1 </tspan>
<tspan x="10" y="2650">  │ │   ├─┬ parse-glob@3.0.4 </tspan>
<tspan x="10" y="2666">  │ │   │ ├── glob-base@0.3.0 </tspan>
<tspan x="10" y="2682">  │ │   │ └── is-dotfile@1.0.2 </tspan>
<tspan x="10" y="2698">  │ │   └─┬ regex-cache@0.4.3 </tspan>
<tspan x="10" y="2714">  │ │     ├── is-equal-shallow@0.1.3 </tspan>
<tspan x="10" y="2730">  │ │     └── is-primitive@2.0.0 </tspan>
<tspan x="10" y="2746">  │ ├── async-each@1.0.1 </tspan>
<tspan x="10" y="2762">  │ ├── glob-parent@2.0.0 </tspan>
<tspan x="10" y="2778">  │ ├── inherits@2.0.3 </tspan>
<tspan x="10" y="2794">  │ ├─┬ is-binary-path@1.0.1 </tspan>
<tspan x="10" y="2810">  │ │ └── binary-extensions@1.8.0 </tspan>
<tspan x="10" y="2826">  │ ├─┬ is-glob@2.0.1 </tspan>
<tspan x="10" y="2842">  │ │ └── is-extglob@1.0.0 </tspan>
<tspan x="10" y="2858">  │ ├── path-is-absolute@1.0.1 </tspan>
<tspan x="10" y="2874">  │ └─┬ readdirp@2.1.0 </tspan>
<tspan x="10" y="2890">  │   ├─┬ minimatch@3.0.3 </tspan>
<tspan x="10" y="2906">  │   │ └─┬ brace-expansion@1.1.7 </tspan>
<tspan x="10" y="2922">  │   │   ├── balanced-match@0.4.2 </tspan>
<tspan x="10" y="2938">  │   │   └── concat-map@0.0.1 </tspan>
<tspan x="10" y="2954">  │   ├─┬ readable-stream@2.2.9 </tspan>
<tspan x="10" y="2970">  │   │ ├── buffer-shims@1.0.0 </tspan>
<tspan x="10" y="2986">  │   │ ├── core-util-is@1.0.2 </tspan>
<tspan x="10" y="3002">  │   │ ├── isarray@1.0.0 </tspan>
<tspan x="10" y="3018">  │   │ ├── process-nextick-args@1.0.7 </tspan>
<tspan x="10" y="3034">  │   │ ├── string_decoder@1.0.0 </tspan>
<tspan x="10" y="3050">  │   │ └── util-deprecate@1.0.2 </tspan>
<tspan x="10" y="3066">  │   └── set-immediate-shim@1.0.1 </tspan>
<tspan x="10" y="3082">  ├─┬ cli-color@1.2.0 </tspan>
<tspan x="10" y="3098">  │ ├── ansi-regex@2.1.1 </tspan>
<tspan x="10" y="3114">  │ ├── d@1.0.0 </tspan>
<tspan x="10" y="3130">  │ ├─┬ es5-ext@0.10.15 </tspan>
<tspan x="10" y="3146">  │ │ └── es6-symbol@3.1.1 </tspan>
<tspan x="10" y="3162">  │ ├── es6-iterator@2.0.1 </tspan>
<tspan x="10" y="3178">  │ ├─┬ memoizee@0.4.4 </tspan>
<tspan x="10" y="3194">  │ │ ├── es6-weak-map@2.0.2 </tspan>
<tspan x="10" y="3210">  │ │ ├── event-emitter@0.3.5 </tspan>
<tspan x="10" y="3226">  │ │ ├── is-promise@2.1.0 </tspan>
<tspan x="10" y="3242">  │ │ ├── lru-queue@0.1.0 </tspan>
<tspan x="10" y="3258">  │ │ └── next-tick@1.0.0 </tspan>
<tspan x="10" y="3274">  │ └── timers-ext@0.1.2 </tspan>
<tspan x="10" y="3290">  ├─┬ drafter@1.2.0 </tspan>
<tspan x="10" y="3306">  │ ├── drafter.js@2.6.6 </tspan>
<tspan x="10" y="3322">  │ └─┬ protagonist@1.6.7 </tspan>
<tspan x="10" y="3338">  │   └── nan@2.2.1 </tspan>
<tspan x="10" y="3354">  ├─┬ pretty-error@1.2.0 </tspan>
<tspan x="10" y="3370">  │ ├─┬ renderkid@1.0.0 </tspan>
<tspan x="10" y="3386">  │ │ ├─┬ css-select@1.2.0 </tspan>
<tspan x="10" y="3402">  │ │ │ ├── boolbase@1.0.0 </tspan>
<tspan x="10" y="3418">  │ │ │ ├── css-what@2.1.0 </tspan>
<tspan x="10" y="3434">  │ │ │ ├─┬ domutils@1.5.1 </tspan>
<tspan x="10" y="3450">  │ │ │ │ └─┬ dom-serializer@0.1.0 </tspan>
<tspan x="10" y="3466">  │ │ │ │   └── domelementtype@1.1.3 </tspan>
<tspan x="10" y="3482">  │ │ │ └── nth-check@1.0.1 </tspan>
<tspan x="10" y="3498">  │ │ ├─┬ dom-converter@0.1.4 </tspan>
<tspan x="10" y="3514">  │ │ │ └── utila@0.3.3 </tspan>
<tspan x="10" y="3530">  │ │ ├─┬ htmlparser2@3.3.0 </tspan>
<tspan x="10" y="3546">  │ │ │ ├── domelementtype@1.3.0 </tspan>
<tspan x="10" y="3562">  │ │ │ ├── domhandler@2.1.0 </tspan>
<tspan x="10" y="3578">  │ │ │ ├── domutils@1.1.6 </tspan>
<tspan x="10" y="3594">  │ │ │ └─┬ readable-stream@1.0.34 </tspan>
<tspan x="10" y="3610">  │ │ │   ├── isarray@0.0.1 </tspan>
<tspan x="10" y="3626">  │ │ │   └── string_decoder@0.10.31 </tspan>
<tspan x="10" y="3642">  │ │ ├── strip-ansi@3.0.1 </tspan>
<tspan x="10" y="3658">  │ │ └── utila@0.3.3 </tspan>
<tspan x="10" y="3674">  │ └── utila@0.4.0 </tspan>
<tspan x="10" y="3690">  ├─┬ serve-static@1.12.1 </tspan>
<tspan x="10" y="3706">  │ ├── encodeurl@1.0.1 </tspan>
<tspan x="10" y="3722">  │ ├── escape-html@1.0.3 </tspan>
<tspan x="10" y="3738">  │ ├── parseurl@1.3.1 </tspan>
<tspan x="10" y="3754">  │ └─┬ send@0.15.1 </tspan>
<tspan x="10" y="3770">  │   ├── debug@2.6.1 </tspan>
<tspan x="10" y="3786">  │   ├── depd@1.1.0 </tspan>
<tspan x="10" y="3802">  │   ├── destroy@1.0.4 </tspan>
<tspan x="10" y="3818">  │   ├── etag@1.8.0 </tspan>
<tspan x="10" y="3834">  │   ├── fresh@0.5.0 </tspan>
<tspan x="10" y="3850">  │   ├─┬ http-errors@1.6.1 </tspan>
<tspan x="10" y="3866">  │   │ └── setprototypeof@1.0.3 </tspan>
<tspan x="10" y="3882">  │   ├── ms@0.7.2 </tspan>
<tspan x="10" y="3898">  │   ├─┬ on-finished@2.3.0 </tspan>
<tspan x="10" y="3914">  │   │ └── ee-first@1.1.1 </tspan>
<tspan x="10" y="3930">  │   ├── range-parser@1.2.0 </tspan>
<tspan x="10" y="3946">  │   └── statuses@1.3.1 </tspan>
<tspan x="10" y="3962">  ├─┬ socket.io@1.7.3 </tspan>
<tspan x="10" y="3978">  │ ├── debug@2.3.3 </tspan>
<tspan x="10" y="3994">  │ ├─┬ engine.io@1.8.3 </tspan>
<tspan x="10" y="4010">  │ │ ├─┬ accepts@1.3.3 </tspan>
<tspan x="10" y="4026">  │ │ │ └── negotiator@0.6.1 </tspan>
<tspan x="10" y="4042">  │ │ ├── base64id@1.0.0 </tspan>
<tspan x="10" y="4058">  │ │ ├── cookie@0.3.1 </tspan>
<tspan x="10" y="4074">  │ │ ├── debug@2.3.3 </tspan>
<tspan x="10" y="4090">  │ │ ├─┬ engine.io-parser@1.3.2 </tspan>
<tspan x="10" y="4106">  │ │ │ ├── after@0.8.2 </tspan>
<tspan x="10" y="4122">  │ │ │ ├── arraybuffer.slice@0.0.6 </tspan>
<tspan x="10" y="4138">  │ │ │ ├── base64-arraybuffer@0.1.5 </tspan>
<tspan x="10" y="4154">  │ │ │ ├── blob@0.0.4 </tspan>
<tspan x="10" y="4170">  │ │ │ └── wtf-8@1.0.0 </tspan>
<tspan x="10" y="4186">  │ │ └─┬ ws@1.1.2 </tspan>
<tspan x="10" y="4202">  │ │   ├── options@0.0.6 </tspan>
<tspan x="10" y="4218">  │ │   └── ultron@1.0.2 </tspan>
<tspan x="10" y="4234">  │ ├─┬ has-binary@0.1.7 </tspan>
<tspan x="10" y="4250">  │ │ └── isarray@0.0.1 </tspan>
<tspan x="10" y="4266">  │ ├── object-assign@4.1.0 </tspan>
<tspan x="10" y="4282">  │ ├─┬ socket.io-adapter@0.5.0 </tspan>
<tspan x="10" y="4298">  │ │ └── debug@2.3.3 </tspan>
<tspan x="10" y="4314">  │ ├─┬ socket.io-client@1.7.3 </tspan>
<tspan x="10" y="4330">  │ │ ├── backo2@1.0.2 </tspan>
<tspan x="10" y="4346">  │ │ ├── component-bind@1.0.0 </tspan>
<tspan x="10" y="4362">  │ │ ├── component-emitter@1.2.1 </tspan>
<tspan x="10" y="4378">  │ │ ├── debug@2.3.3 </tspan>
<tspan x="10" y="4394">  │ │ ├─┬ engine.io-client@1.8.3 </tspan>
<tspan x="10" y="4410">  │ │ │ ├── component-emitter@1.2.1 </tspan>
<tspan x="10" y="4426">  │ │ │ ├── component-inherit@0.0.3 </tspan>
<tspan x="10" y="4442">  │ │ │ ├── debug@2.3.3 </tspan>
<tspan x="10" y="4458">  │ │ │ ├── has-cors@1.1.0 </tspan>
<tspan x="10" y="4474">  │ │ │ ├── parsejson@0.0.3 </tspan>
<tspan x="10" y="4490">  │ │ │ ├── parseqs@0.0.5 </tspan>
<tspan x="10" y="4506">  │ │ │ ├── xmlhttprequest-ssl@1.5.3 </tspan>
<tspan x="10" y="4522">  │ │ │ └── yeast@0.1.2 </tspan>
<tspan x="10" y="4538">  │ │ ├── indexof@0.0.1 </tspan>
<tspan x="10" y="4554">  │ │ ├── object-component@0.0.3 </tspan>
<tspan x="10" y="4570">  │ │ ├─┬ parseuri@0.0.5 </tspan>
<tspan x="10" y="4586">  │ │ │ └─┬ better-assert@1.0.2 </tspan>
<tspan x="10" y="4602">  │ │ │   └── callsite@1.0.0 </tspan>
<tspan x="10" y="4618">  │ │ └── to-array@0.1.4 </tspan>
<tspan x="10" y="4634">  │ └─┬ socket.io-parser@2.3.1 </tspan>
<tspan x="10" y="4650">  │   ├── component-emitter@1.1.2 </tspan>
<tspan x="10" y="4666">  │   ├─┬ debug@2.2.0 </tspan>
<tspan x="10" y="4682">  │   │ └── ms@0.7.1 </tspan>
<tspan x="10" y="4698">  │   ├── isarray@0.0.1 </tspan>
<tspan x="10" y="4714">  │   └── json3@3.3.2 </tspan>
<tspan x="10" y="4730">  └─┬ yargs@3.32.0 </tspan>
<tspan x="10" y="4746">    ├── camelcase@2.1.1 </tspan>
<tspan x="10" y="4762">    ├─┬ cliui@3.2.0 </tspan>
<tspan x="10" y="4778">    │ └── wrap-ansi@2.1.0 </tspan>
<tspan x="10" y="4794">    ├── decamelize@1.2.0 </tspan>
<tspan x="10" y="4810">    ├─┬ os-locale@1.4.0 </tspan>
<tspan x="10" y="4826">    │ └─┬ lcid@1.0.0 </tspan>
<tspan x="10" y="4842">    │   └── invert-kv@1.0.0 </tspan>
<tspan x="10" y="4858">    ├─┬ string-width@1.0.2 </tspan>
<tspan x="10" y="4874">    │ ├── code-point-at@1.1.0 </tspan>
<tspan x="10" y="4890">    │ └─┬ is-fullwidth-code-point@1.0.0 </tspan>
<tspan x="10" y="4906">    │   └── number-is-nan@1.0.1 </tspan>
<tspan x="10" y="4922">    ├── window-size@0.1.4 </tspan>
<tspan x="10" y="4938">    └── y18n@3.2.1</tspan>
</text>
</svg>
